<svg xmlns="http://www.w3.org/2000/svg" version="1.1" xmlns:xlink="http://www.w3.org/1999/xlink" xmlns:svgjs="http://svgjs.dev/svgjs" width="1500" height="359" viewBox="0 0 1500 359"><g transform="matrix(1,0,0,1,-0.9090909090909918,0.6085825045778108)"><svg viewBox="0 0 396 95" data-background-color="#ffffff" preserveAspectRatio="xMidYMid meet" height="359" width="1500" xmlns="http://www.w3.org/2000/svg" xmlns:xlink="http://www.w3.org/1999/xlink"><g id="tight-bounds" transform="matrix(1,0,0,1,0.2400000000000091,-0.16104550956794128)"><svg viewBox="0 0 395.52 95.32181814594719" height="95.32181814594719" width="395.52"><g><svg viewBox="0 0 554.1390818776315 133.5496176939263" height="95.32181814594719" width="395.52"><g transform="matrix(1,0,0,1,158.61908187763152,13.678636038831016)"><svg viewBox="0 0 395.5199999999999 106.19234561626428" height="106.19234561626428" width="395.5199999999999"><g id="textblocktransform"><svg viewBox="0 0 395.5199999999999 106.19234561626428" height="106.19234561626428" width="395.5199999999999" id="textblock"><g><svg viewBox="0 0 395.5199999999999 106.19234561626428" height="106.19234561626428" width="395.5199999999999"><g transform="matrix(1,0,0,1,0,0)"><svg width="395.5199999999999" viewBox="3.98 -38.57 192.13000000000002 51.58" height="106.19234561626428" data-palette-color="#3a8b82"><path d="M29.22-4.49L29.22 0 3.98 0 3.98-35.16 29.22-35.16 29.22-30.66 13.67-30.66 13.67-19.8 25.68-19.8 25.68-15.33 13.67-15.33 13.67-4.49 29.22-4.49ZM57.03-3.27L57.03 0 33.15 0 33.15-3.27 33.15-3.27 47.92-24.93 33.15-24.93 33.15-28.2 57.03-28.2 57.03-24.93 42.26-3.27 57.03-3.27ZM91.67-10.74L91.67-10.74Q91.67-8.47 91.1-6.74 90.52-5 89.48-3.74 88.45-2.47 87.03-1.61 85.62-0.76 83.94-0.24 82.27 0.27 80.4 0.49 78.54 0.71 76.61 0.71L76.61 0.71Q74.07 0.71 71.92 0.33 69.77-0.05 67.88-0.87 65.99-1.68 64.24-2.98 62.5-4.27 60.76-6.13L60.76-6.13 65.74-11.18Q66.43-9.5 67.62-8.07 68.82-6.64 70.25-5.62 71.67-4.59 73.21-4 74.75-3.42 76.12-3.42L76.12-3.42Q77.73-3.42 79.15-3.65 80.56-3.88 81.61-4.42 82.66-4.96 83.26-5.85 83.86-6.74 83.86-8.08L83.86-8.08Q83.86-9.11 83.39-9.84 82.93-10.57 82.18-11.1 81.44-11.62 80.49-11.99 79.54-12.35 78.55-12.61 77.56-12.87 76.61-13.07 75.65-13.28 74.92-13.5L74.92-13.5Q73.48-13.92 71.92-14.39 70.36-14.87 68.84-15.48 67.33-16.09 65.97-16.88 64.62-17.68 63.59-18.76 62.57-19.85 61.96-21.28 61.35-22.71 61.35-24.56L61.35-24.56Q61.35-26.78 61.9-28.5 62.45-30.22 63.45-31.49 64.45-32.76 65.82-33.63 67.18-34.5 68.82-35.02 70.45-35.55 72.3-35.78 74.14-36.01 76.07-36.01L76.07-36.01Q78.71-36.01 80.87-35.52 83.03-35.03 84.86-34.13 86.69-33.23 88.22-31.97 89.74-30.71 91.08-29.17L91.08-29.17 86.1-24.12Q85.52-25.88 84.48-27.29 83.44-28.71 82.17-29.72 80.9-30.74 79.51-31.29 78.12-31.84 76.83-31.84L76.83-31.84Q75.14-31.84 73.73-31.6 72.31-31.37 71.3-30.85 70.28-30.32 69.72-29.43 69.16-28.54 69.16-27.22L69.16-27.22Q69.16-26.17 69.58-25.44 69.99-24.71 70.69-24.19 71.38-23.68 72.26-23.35 73.14-23.02 74.08-22.78 75.02-22.53 75.93-22.35 76.85-22.17 77.61-21.95L77.61-21.95Q79.07-21.53 80.68-21.07 82.29-20.61 83.86-19.98 85.42-19.36 86.84-18.55 88.25-17.75 89.33-16.64 90.4-15.53 91.04-14.07 91.67-12.62 91.67-10.74ZM125.7-16.16L125.7-16.16Q125.7-13.31 125-10.21 124.31-7.1 123.06-4.13 121.82-1.15 120.09 1.48 118.35 4.1 116.28 6.01L116.28 6.01 113.18 4.32Q113.84 3.1 114.42 1.59 115.01 0.07 115.48-1.62 115.96-3.32 116.34-5.13 116.72-6.93 116.97-8.7 117.23-10.47 117.36-12.15 117.5-13.82 117.5-15.26L117.5-15.26Q117.5-16.21 117.42-17.3 117.35-18.38 117.12-19.47 116.89-20.56 116.5-21.56 116.11-22.56 115.46-23.32 114.81-24.07 113.9-24.54 112.98-25 111.74-25L111.74-25Q110.51-25 109.56-24.45 108.61-23.9 107.88-23.01 107.15-22.12 106.62-20.97 106.1-19.82 105.77-18.62 105.44-17.41 105.29-16.24 105.14-15.06 105.14-14.14L105.14-14.14 105.14 0 96.87 0 96.87-38.57 105.12-38.57 105.12-24.05Q106.71-26.37 109.01-27.62 111.32-28.88 114.13-28.88L114.13-28.88Q117.06-28.88 119.23-27.93 121.4-26.98 122.84-25.28 124.28-23.58 124.99-21.25 125.7-18.92 125.7-16.16ZM160.93-14.16L160.93-14.16Q160.93-11.96 160.34-10.03 159.76-8.11 158.72-6.47 157.68-4.83 156.22-3.53 154.75-2.22 153.01-1.32 151.26-0.42 149.27 0.07 147.28 0.56 145.18 0.56L145.18 0.56Q143.08 0.56 141.1 0.07 139.13-0.42 137.38-1.32 135.63-2.22 134.17-3.53 132.7-4.83 131.67-6.47 130.63-8.11 130.04-10.05 129.46-11.99 129.46-14.16L129.46-14.16Q129.46-16.33 130.04-18.27 130.63-20.21 131.67-21.85 132.7-23.49 134.17-24.79 135.63-26.1 137.38-27 139.13-27.91 141.1-28.39 143.08-28.88 145.18-28.88L145.18-28.88Q147.28-28.88 149.27-28.39 151.26-27.91 153.01-27 154.75-26.1 156.22-24.79 157.68-23.49 158.72-21.85 159.76-20.21 160.34-18.27 160.93-16.33 160.93-14.16ZM152.53-14.16L152.53-14.16Q152.53-15.33 152.39-16.64 152.26-17.94 151.94-19.2 151.63-20.46 151.08-21.62 150.53-22.78 149.72-23.65 148.92-24.51 147.79-25.04 146.67-25.56 145.18-25.56L145.18-25.56Q143.76-25.56 142.67-25.02 141.57-24.49 140.75-23.6 139.93-22.71 139.38-21.53 138.83-20.36 138.49-19.1 138.15-17.85 138-16.56 137.86-15.28 137.86-14.16L137.86-14.16Q137.86-13.04 138-11.76 138.15-10.47 138.49-9.2 138.83-7.93 139.38-6.77 139.93-5.62 140.75-4.72 141.57-3.83 142.67-3.3 143.76-2.76 145.18-2.76L145.18-2.76Q146.65-2.76 147.77-3.28 148.89-3.81 149.71-4.69 150.53-5.57 151.06-6.71 151.6-7.86 151.93-9.13 152.26-10.4 152.39-11.69 152.53-12.99 152.53-14.16ZM196.11-14.16L196.11-14.16Q196.11-11.08 195.18-8.4 194.25-5.71 192.49-3.72 190.73-1.73 188.2-0.59 185.66 0.56 182.43 0.56L182.43 0.56Q179.97 0.56 177.9-0.4 175.84-1.37 174.38-3.37L174.38-3.37 174.38 13.01 166.13 13.01 166.13-28.2 169.3-28.2 172.96-22.07Q173.5-23.61 174.44-24.87 175.38-26.12 176.61-27.01 177.84-27.91 179.32-28.39 180.8-28.88 182.43-28.88L182.43-28.88Q185.66-28.88 188.2-27.73 190.73-26.59 192.49-24.6 194.25-22.61 195.18-19.92 196.11-17.24 196.11-14.16ZM187.73-14.16L187.73-14.16Q187.73-15.23 187.62-16.44 187.51-17.65 187.24-18.85 186.97-20.04 186.5-21.14 186.02-22.24 185.29-23.08 184.56-23.93 183.52-24.43 182.48-24.93 181.12-24.93L181.12-24.93Q179.7-24.93 178.66-24.44 177.62-23.95 176.88-23.11 176.13-22.27 175.66-21.18 175.18-20.09 174.91-18.9 174.65-17.7 174.54-16.48 174.43-15.26 174.43-14.16L174.43-14.16Q174.43-13.18 174.57-12 174.72-10.82 175.04-9.62 175.35-8.42 175.87-7.3 176.38-6.18 177.12-5.3 177.87-4.42 178.86-3.89 179.85-3.37 181.12-3.37L181.12-3.37Q182.51-3.37 183.53-3.87 184.56-4.37 185.29-5.21 186.02-6.05 186.5-7.15 186.97-8.25 187.24-9.45 187.51-10.64 187.62-11.87 187.73-13.09 187.73-14.16Z" opacity="1" transform="matrix(1,0,0,1,0,0)" fill="#3a8b82" class="wordmark-text-0" data-fill-palette-color="primary" id="text-0"></path></svg></g></svg></g></svg></g></svg></g><g><svg viewBox="0 0 133.5496176939263 133.5496176939263" height="133.5496176939263" width="133.5496176939263"><g><svg></svg></g><g id="icon-0"><svg viewBox="0 0 133.5496176939263 133.5496176939263" height="133.5496176939263" width="133.5496176939263"><g><path transform="scale(1.3355,1.3355)" d="M30 100c-16.569 0-30-13.431-30-30v-40c0-16.569 13.431-30 30-30h40c16.569 0 30 13.431 30 30v40c0 16.569-13.431 30-30 30z" fill="#3a8b82" fill-rule="nonzero" stroke="none" stroke-width="1" stroke-linecap="butt" stroke-linejoin="miter" stroke-miterlimit="10" stroke-dasharray="" stroke-dashoffset="0" font-family="none" font-weight="none" font-size="none" text-anchor="none" style="mix-blend-mode: normal" data-fill-palette-color="accent"></path></g><g transform="matrix(1,0,0,1,26.70992353878526,35.12761581683206)"><svg viewBox="0 0 80.12977061635578 63.29438606026218" height="63.29438606026218" width="80.12977061635578"><g><svg xmlns="http://www.w3.org/2000/svg" xmlns:xlink="http://www.w3.org/1999/xlink" xmlns:a="http://ns.adobe.com/AdobeSVGViewerExtensions/3.0/" version="1.1" x="0" y="0" viewBox="0 0 37.539 29.652" enable-background="new -1 -7.776 40 40" xml:space="preserve" height="63.29438606026218" width="80.12977061635578" class="icon-cg-0" data-fill-palette-color="quaternary" id="cg-0"><polygon points="31.104,23.375 37.539,10.883 13.469,10.883 7.823,0 0,0 0,3.69 5.551,3.69 15.678,23.375 31.104,23.375 " fill="#ffffff" data-fill-palette-color="quaternary"></polygon><path d="M18.549 29.589c0.788 0 1.419-0.284 1.956-0.82 0.536-0.536 0.819-1.198 0.819-1.956 0-0.787-0.283-1.45-0.819-1.985-0.537-0.537-1.168-0.821-1.956-0.821-0.79 0-1.452 0.284-1.988 0.821-0.536 0.535-0.788 1.198-0.788 1.985 0 0.758 0.251 1.42 0.788 1.956C17.097 29.305 17.759 29.589 18.549 29.589L18.549 29.589z" fill="#ffffff" data-fill-palette-color="quaternary"></path><path d="M28.391 29.652c-0.788 0-1.42-0.284-1.956-0.82s-0.82-1.199-0.82-1.956c0-0.788 0.284-1.45 0.82-1.986 0.536-0.537 1.168-0.82 1.956-0.82 0.789 0 1.451 0.283 1.987 0.82 0.537 0.536 0.788 1.198 0.788 1.986 0 0.757-0.251 1.42-0.788 1.956C29.842 29.368 29.18 29.652 28.391 29.652L28.391 29.652z" fill="#ffffff" data-fill-palette-color="quaternary"></path></svg></g></svg></g></svg></g></svg></g></svg></g><defs></defs></svg><rect width="395.52" height="95.32181814594719" fill="none" stroke="none" visibility="hidden"></rect></g></svg></g></svg>